<svg width="228" height="595" viewBox="0 0 228 595" fill="none" xmlns="http://www.w3.org/2000/svg">
<path d="M16.6512 324.364C17.7637 324.364 18.8773 323.939 19.7267 323.09C21.4253 321.391 21.4253 318.637 19.7267 316.939L16.6512 313.863L19.7267 310.788C21.4253 309.089 21.4253 306.336 19.7267 304.637C18.028 302.938 15.2745 302.938 13.5758 304.637L10.5003 307.712L7.42489 304.636C5.72622 302.937 2.97268 302.937 1.274 304.636C-0.424668 306.335 -0.424668 309.088 1.274 310.787L4.34945 313.862L1.274 316.938C-0.424668 318.636 -0.424668 321.39 1.274 323.089C2.12334 323.938 3.23694 324.363 4.34945 324.363C5.46196 324.363 6.57556 323.938 7.42489 323.089L10.5003 320.013L13.5758 323.089C14.4262 323.939 15.5387 324.364 16.6512 324.364Z" fill="#D7D7D7"/>
<path d="M101.85 353.013C104.253 353.013 106.2 351.066 106.2 348.663C106.2 346.261 104.253 344.313 101.85 344.313C99.4478 344.313 97.5002 346.261 97.5002 348.663C97.5002 351.066 99.4478 353.013 101.85 353.013Z" fill="#D7D7D7"/>
<path d="M19.2003 370.413C21.6028 370.413 23.5503 368.466 23.5503 366.063C23.5503 363.661 21.6028 361.713 19.2003 361.713C16.7979 361.713 14.8503 363.661 14.8503 366.063C14.8503 368.466 16.7979 370.413 19.2003 370.413Z" fill="#D7D7D7"/>
<path d="M223.65 187.714C226.052 187.714 228 185.766 228 183.364C228 180.961 226.052 179.014 223.65 179.014C221.248 179.014 219.3 180.961 219.3 183.364C219.3 185.766 221.248 187.714 223.65 187.714Z" fill="#D7D7D7"/>
<path d="M206.913 296.515C206.403 296.438 158.46 288.694 150.542 257.309L209.135 257.242C211.535 257.237 213.481 255.152 213.481 252.751C213.481 209.693 178.451 174.664 135.393 174.664C132.089 174.664 128.855 174.937 125.658 175.337L122.208 164.266C124.681 164.033 127.18 163.885 129.713 163.885C145.716 163.885 161.153 168.609 174.347 177.543C175.363 178.232 176.633 178.448 177.81 178.168C179.004 177.878 180.014 177.102 180.605 176.026L197.019 145.975C198.094 144.005 197.496 141.541 195.635 140.283C186.621 134.196 176.668 129.281 166.052 125.67C163.821 124.896 161.405 126.06 160.576 128.261L160.22 129.217L159.93 126.621C159.73 124.82 158.431 123.329 156.676 122.882C146.515 120.308 136.179 119 125.955 119C92.501 119 61.0929 132.079 37.5171 155.835C36.4959 156.862 36.0533 158.328 36.3382 159.752L39.4583 175.36L27.7339 171.843C25.9156 171.308 23.9592 171.992 22.887 173.563C8.78537 194.268 1.33057 218.494 1.33057 243.626C1.33057 253.86 2.57684 264.042 5.03894 273.893C5.53157 275.864 7.29876 277.19 9.25517 277.19C9.55205 277.19 9.85438 277.16 10.1556 277.096L49.2675 268.864C50.4289 268.617 51.4425 267.908 52.0667 266.901C52.6931 265.889 52.8802 264.67 52.5833 263.52C50.852 256.821 49.9755 250.131 49.9755 243.626C49.9755 237.376 50.7715 231.321 52.1385 225.482L61.3202 228.214C58.7537 235.941 57.3117 244.174 57.3117 252.751V280.699C57.3117 299.387 50.7954 317.64 38.9624 332.105L35.4106 336.446C34.3187 337.781 34.1186 339.628 34.8962 341.166C35.6738 342.699 37.2365 343.642 39.008 343.546C40.8503 343.446 83.5161 340.93 108.353 319.526C111.57 321.407 115.263 322.564 119.251 322.564C120.546 322.564 121.799 322.4 123.034 322.182C133.841 342.942 157.677 367.31 210.347 370.406C210.431 370.41 210.516 370.414 210.601 370.414C211.765 370.414 212.883 369.947 213.706 369.115C214.586 368.219 215.036 366.982 214.938 365.729C214.896 365.168 210.601 309.251 210.601 300.816C210.6 298.668 209.033 296.841 206.913 296.515ZM12.5372 267.703C10.8723 259.819 10.0284 251.739 10.0284 243.625C10.0284 239.392 10.3285 235.198 10.7788 231.034L22.5835 231.059H22.5922C24.9902 231.059 26.9379 229.118 26.9422 226.718C26.9466 224.318 25.0032 222.363 22.6009 222.359L12.0522 222.336C14.7688 207.712 20.2139 193.737 28.3266 181.102L43.8909 185.775C45.359 186.212 46.9413 185.851 48.0691 184.823C49.199 183.795 49.7068 182.253 49.4067 180.754L45.3264 160.341C53.8828 152.049 63.5061 145.252 73.8656 140.028L82.6048 157.261C83.3714 158.774 84.9026 159.644 86.4893 159.644C87.1494 159.644 87.8215 159.495 88.4522 159.172C90.5957 158.089 91.4516 155.468 90.3662 153.327L81.7793 136.393C83.5509 135.664 85.3387 134.974 87.1451 134.334L89.9312 141.785C90.5837 143.531 92.2422 144.611 94.005 144.611C94.5129 144.611 95.0262 144.521 95.5275 144.334C97.7786 143.494 98.9194 140.987 98.0788 138.736L95.471 131.761C105.285 129.103 115.507 127.7 125.952 127.7C134.483 127.7 143.102 128.681 151.62 130.614L153.578 148.261C153.803 150.262 155.367 151.851 157.363 152.097C159.333 152.313 161.267 151.196 161.976 149.306L167.213 135.33C174.349 138.04 181.13 141.396 187.45 145.342L175.199 167.768C161.486 159.522 145.858 155.185 129.711 155.185C80.9452 155.185 41.2711 194.857 41.2711 243.625C41.2711 249.419 41.8932 255.333 43.1231 261.263L12.5372 267.703ZM54.5919 217.139C63.791 191.135 86.0402 171.249 113.493 165.553L117.038 176.932C93.6907 182.588 74.4485 198.726 64.5555 220.104L54.5919 217.139ZM106.2 300.813C106.2 293.617 112.054 287.763 119.25 287.763C126.446 287.763 132.3 293.617 132.3 300.813C132.3 308.009 126.446 313.863 119.25 313.863C112.054 313.863 106.2 308.009 106.2 300.813ZM131.166 318.971C137.078 315.079 141 308.404 141 300.812C141 288.82 131.242 279.062 119.25 279.062C107.258 279.062 97.5002 288.82 97.5002 300.812C97.5002 305.633 99.1293 310.05 101.794 313.66C86.1098 326.607 62.1804 331.778 48.6922 333.734C59.8902 318.395 66.0095 299.75 66.0095 280.697V252.749C66.0095 214.487 97.1348 183.361 135.393 183.361C172.198 183.361 202.401 212.167 204.649 248.544L145.347 248.611C144.11 248.611 142.934 249.142 142.109 250.064C141.285 250.982 140.89 252.214 141.026 253.441C145.079 289.894 188.927 301.716 202.007 304.442C202.483 315.399 204.451 342.324 205.54 356.827L178.409 336.481C176.488 335.041 173.762 335.427 172.321 337.352C170.877 339.273 171.267 341.999 173.192 343.44L195.241 359.975C158.091 353.926 139.966 335.353 131.166 318.971Z" fill="#FAFAFA"/>
<path d="M119.25 305.163C121.653 305.163 123.6 303.216 123.6 300.813C123.6 298.411 121.653 296.463 119.25 296.463C116.848 296.463 114.9 298.411 114.9 300.813C114.9 303.216 116.848 305.163 119.25 305.163Z" fill="#D7D7D7"/>
<path d="M157.023 204.888C180.655 212.768 188.994 236.706 189.075 236.948C189.687 238.766 191.382 239.913 193.2 239.913C193.655 239.913 194.118 239.842 194.577 239.688C196.854 238.933 198.086 236.468 197.325 234.187C196.942 233.035 187.618 205.916 159.777 196.639C157.475 195.874 155.037 197.111 154.275 199.387C153.515 201.668 154.747 204.131 157.023 204.888Z" fill="#D7D7D7"/>
<path d="M117.098 350.854C117.697 349.011 120.303 349.011 120.902 350.854L126.633 368.493C126.901 369.317 127.669 369.875 128.536 369.875H147.083C149.02 369.875 149.826 372.355 148.258 373.493L133.253 384.395C132.552 384.904 132.259 385.807 132.527 386.631L138.258 404.271C138.857 406.113 136.748 407.645 135.18 406.507L120.176 395.605C119.475 395.096 118.525 395.096 117.824 395.605L102.82 406.507C101.252 407.645 99.1431 406.113 99.7418 404.271L105.473 386.631C105.741 385.807 105.448 384.904 104.747 384.395L89.7418 373.493C88.1743 372.355 88.9799 369.875 90.9173 369.875H109.464C110.331 369.875 111.099 369.317 111.367 368.493L117.098 350.854Z" fill="#FFC107"/>
<path d="M46.672 467.36C47.7813 467.36 48.72 466.976 49.488 466.208C50.2987 465.397 50.7253 464.437 50.768 463.328V427.808C50.7253 426.699 50.2987 425.76 49.488 424.992C48.72 424.224 47.7813 423.84 46.672 423.84H45.84V423.2H59.856V423.84H59.024C57.9147 423.84 56.9547 424.224 56.144 424.992C55.376 425.76 54.9707 426.699 54.928 427.808V463.328C54.928 464.437 55.3333 465.397 56.144 466.208C56.9547 466.976 57.9147 467.36 59.024 467.36H59.856V468H45.84V467.36H46.672ZM113.567 423.84C112.5 423.84 111.583 424.224 110.815 424.992C110.047 425.717 109.642 426.613 109.599 427.68V460.704C109.599 463.179 109.748 465.525 110.047 467.744L110.175 468.896H109.599L74.719 431.648V463.52C74.7617 465.013 75.423 466.123 76.703 466.848C77.3003 467.189 77.9403 467.36 78.623 467.36H79.839V468H66.655V467.36H67.871C68.9377 467.36 69.855 466.997 70.623 466.272C71.391 465.504 71.775 464.565 71.775 463.456V430.24C71.775 427.637 71.6257 425.312 71.327 423.264L71.199 422.24H71.839L106.719 459.488V427.744C106.676 426.635 106.271 425.717 105.503 424.992C104.735 424.224 103.818 423.84 102.751 423.84H101.535V423.2H114.719V423.84H113.567ZM147.321 423.904V429.28H146.681V428.32C146.681 427.467 146.382 426.741 145.785 426.144C145.187 425.504 144.441 425.184 143.545 425.184H130.041V444.96H140.857C141.71 444.917 142.435 444.597 143.033 444C143.63 443.403 143.929 442.677 143.929 441.824V440.864H144.569V450.976H143.929V450.016C143.929 449.163 143.63 448.437 143.033 447.84C142.478 447.243 141.774 446.923 140.921 446.88H130.041V463.328C130.041 464.437 130.446 465.397 131.257 466.208C132.067 466.976 133.027 467.36 134.137 467.36H134.969V468H120.953V467.36H121.785C122.894 467.36 123.833 466.976 124.601 466.208C125.411 465.397 125.838 464.437 125.881 463.328V427.488C125.881 426.464 125.454 425.611 124.601 424.928C123.79 424.203 122.851 423.84 121.785 423.84H121.017L120.953 423.2H139.705C141.027 423.2 142.457 423.072 143.993 422.816C145.571 422.56 146.681 422.304 147.321 422.048V423.904ZM161.453 428.768C165.72 424.459 171.267 422.304 178.093 422.304C184.92 422.304 190.467 424.459 194.733 428.768C199 433.035 201.133 438.645 201.133 445.6C201.133 452.555 199 458.187 194.733 462.496C190.467 466.763 184.92 468.896 178.093 468.896C171.267 468.896 165.72 466.763 161.453 462.496C157.229 458.187 155.117 452.555 155.117 445.6C155.117 438.645 157.229 433.035 161.453 428.768ZM164.973 461.088C168.301 465.013 172.675 466.976 178.093 466.976C183.555 466.976 187.928 465.013 191.213 461.088C194.541 457.163 196.205 452 196.205 445.6C196.205 441.376 195.459 437.643 193.965 434.4C192.472 431.157 190.339 428.661 187.565 426.912C184.835 425.12 181.677 424.224 178.093 424.224C172.675 424.224 168.301 426.187 164.973 430.112C161.688 434.037 160.045 439.2 160.045 445.6C160.045 452 161.688 457.163 164.973 461.088Z" fill="#FAFAFA"/>
<circle cx="114.5" cy="16.5" r="16.5" fill="#FFC107"/>
<circle cx="114.5" cy="578.5" r="16.5" fill="#03DAC5"/>
</svg>
