<svg width="203" height="166" viewBox="0 0 203 166" fill="none" xmlns="http://www.w3.org/2000/svg">
<path d="M56.6683 94.5757C57.1807 94.5757 57.6935 94.3799 58.0847 93.9887C58.8669 93.2064 58.8669 91.9384 58.0847 91.1561L56.6683 89.7398L58.0847 88.3234C58.8669 87.5411 58.8669 86.2731 58.0847 85.4908C57.3024 84.7085 56.0343 84.7085 55.252 85.4908L53.8357 86.9071L52.4194 85.4903C51.6371 84.708 50.369 84.708 49.5867 85.4903C48.8044 86.2726 48.8044 87.5406 49.5867 88.3229L51.003 89.7393L49.5867 91.1556C48.8044 91.9379 48.8044 93.2059 49.5867 93.9882C49.9779 94.3794 50.4907 94.5752 51.003 94.5752C51.5154 94.5752 52.0282 94.3794 52.4194 93.9882L53.8357 92.5719L55.252 93.9882C55.6436 94.3799 56.156 94.5757 56.6683 94.5757Z" fill="#D7D7D7"/>
<path d="M95.9047 107.769C97.011 107.769 97.9079 106.872 97.9079 105.766C97.9079 104.66 97.011 103.763 95.9047 103.763C94.7983 103.763 93.9014 104.66 93.9014 105.766C93.9014 106.872 94.7983 107.769 95.9047 107.769Z" fill="#D7D7D7"/>
<path d="M57.8422 115.782C58.9485 115.782 59.8454 114.886 59.8454 113.779C59.8454 112.673 58.9485 111.776 57.8422 111.776C56.7358 111.776 55.8389 112.673 55.8389 113.779C55.8389 114.886 56.7358 115.782 57.8422 115.782Z" fill="#D7D7D7"/>
<path d="M151.996 31.6445C153.103 31.6445 154 30.7476 154 29.6412C154 28.5348 153.103 27.6379 151.996 27.6379C150.89 27.6379 149.993 28.5348 149.993 29.6412C149.993 30.7476 150.89 31.6445 151.996 31.6445Z" fill="#D7D7D7"/>
<path d="M144.289 81.7501C144.054 81.7151 121.975 78.1487 118.329 63.695L145.312 63.664C146.418 63.662 147.314 62.7014 147.314 61.5961C147.314 41.7665 131.182 25.6346 111.352 25.6346C109.831 25.6346 108.341 25.7603 106.869 25.9446L105.28 20.8462C106.419 20.739 107.57 20.6709 108.736 20.6709C116.106 20.6709 123.215 22.8465 129.292 26.9607C129.759 27.2778 130.344 27.3774 130.886 27.2482C131.436 27.115 131.901 26.7574 132.173 26.2621L139.733 12.4229C140.227 11.5154 139.952 10.3805 139.095 9.80158C134.944 6.99798 130.36 4.73477 125.471 3.07154C124.444 2.71546 123.331 3.25133 122.95 4.265L122.785 4.70522L122.652 3.50976C122.56 2.6804 121.961 1.99377 121.154 1.78793C116.474 0.602488 111.714 0 107.005 0C91.5992 0 77.1349 6.02338 66.2776 16.9633C65.8074 17.4366 65.6035 18.1117 65.7347 18.7673L67.1716 25.9551L61.7722 24.3354C60.9349 24.089 60.0339 24.404 59.5401 25.1277C53.0459 34.6629 49.6128 45.8197 49.6128 57.3937C49.6128 62.1064 50.1867 66.7956 51.3206 71.3325C51.5475 72.24 52.3613 72.8505 53.2623 72.8505C53.399 72.8505 53.5382 72.837 53.677 72.8075L71.689 69.0162C72.2239 68.9025 72.6907 68.576 72.9781 68.1123C73.2666 67.6465 73.3527 67.0851 73.216 66.5552C72.4187 63.4701 72.015 60.3891 72.015 57.3937C72.015 54.5154 72.3816 51.7269 73.0112 49.038L77.2396 50.296C76.0577 53.8544 75.3936 57.6461 75.3936 61.5961V74.4667C75.3936 83.0728 72.3927 91.4791 66.9432 98.1405L65.3075 100.14C64.8047 100.754 64.7126 101.605 65.0707 102.313C65.4287 103.02 66.1484 103.454 66.9643 103.409C67.8127 103.363 87.4614 102.205 98.8997 92.3475C100.381 93.2139 102.082 93.7468 103.918 93.7468C104.515 93.7468 105.092 93.6712 105.66 93.5705C110.637 103.131 121.614 114.353 145.87 115.779C145.909 115.781 145.948 115.783 145.987 115.783C146.523 115.783 147.038 115.568 147.417 115.184C147.822 114.772 148.03 114.202 147.985 113.625C147.965 113.367 145.987 87.6158 145.987 83.7309C145.987 82.7418 145.265 81.9004 144.289 81.7501ZM54.7738 68.4819C54.007 64.8509 53.6184 61.1298 53.6184 57.3932C53.6184 55.4435 53.7566 53.5123 53.9639 51.5947L59.4004 51.6062H59.4044C60.5087 51.6062 61.4056 50.7122 61.4076 49.6069C61.4096 48.5016 60.5147 47.6016 59.4084 47.5996L54.5504 47.5891C55.8014 40.854 58.3091 34.4185 62.0452 28.5994L69.2129 30.7515C69.8891 30.9528 70.6178 30.7865 71.1371 30.3132C71.6575 29.84 71.8913 29.1298 71.7531 28.4392L69.874 19.0387C73.8145 15.22 78.2463 12.0898 83.0171 9.68389L87.0417 17.6204C87.3948 18.3171 88.0999 18.7177 88.8306 18.7177C89.1346 18.7177 89.4441 18.6491 89.7346 18.5004C90.7217 18.0015 91.1159 16.7946 90.6161 15.8084L86.6616 8.01014C87.4774 7.67409 88.3008 7.35657 89.1326 7.06159L90.4157 10.4932C90.7162 11.297 91.48 11.7944 92.2918 11.7944C92.5257 11.7944 92.7621 11.7533 92.993 11.6671C94.0297 11.28 94.555 10.1256 94.1679 9.08891L92.9669 5.87664C97.4863 4.65263 102.194 4.00657 107.004 4.00657C110.933 4.00657 114.902 4.45831 118.825 5.34878L119.727 13.4756C119.83 14.3971 120.551 15.1288 121.47 15.242C122.377 15.3417 123.268 14.8273 123.594 13.9569L126.006 7.52034C129.293 8.76839 132.415 10.3139 135.326 12.1314L129.684 22.4588C123.369 18.6616 116.172 16.6643 108.735 16.6643C86.2775 16.6643 68.0065 34.9343 68.0065 57.3932C68.0065 60.0615 68.2929 62.785 68.8594 65.516L54.7738 68.4819ZM74.141 45.1957C78.3775 33.22 88.6238 24.062 101.267 21.4387L102.899 26.6793C92.1471 29.284 83.2855 36.7157 78.7296 46.5609L74.141 45.1957ZM97.908 83.7299C97.908 80.4159 100.604 77.72 103.918 77.72C107.232 77.72 109.928 80.4159 109.928 83.7299C109.928 87.0438 107.232 89.7397 103.918 89.7397C100.604 89.7397 97.908 87.0438 97.908 83.7299ZM109.405 92.0921C112.128 90.2997 113.934 87.2256 113.934 83.7294C113.934 78.2068 109.44 73.7129 103.918 73.7129C98.3953 73.7129 93.9015 78.2068 93.9015 83.7294C93.9015 85.9495 94.6517 87.9834 95.8787 89.6461C88.6559 95.6084 77.6358 97.9898 71.4241 98.8908C76.581 91.8267 79.3992 83.2401 79.3992 74.4657V61.5951C79.3992 43.9742 93.7332 29.6401 111.352 29.6401C128.302 29.6401 142.211 42.9059 143.246 59.6584L115.936 59.6894C115.367 59.6894 114.825 59.9338 114.445 60.3585C114.066 60.7812 113.884 61.3487 113.946 61.9136C115.813 78.7011 136.006 84.1456 142.029 85.4011C142.249 90.4469 143.155 102.847 143.657 109.526L131.162 100.156C130.278 99.4927 129.022 99.6705 128.358 100.557C127.693 101.441 127.873 102.697 128.76 103.361L138.914 110.976C121.805 108.19 113.458 99.6365 109.405 92.0921Z" fill="#FAFAFA"/>
<path d="M103.918 85.7331C105.024 85.7331 105.921 84.8362 105.921 83.7298C105.921 82.6235 105.024 81.7266 103.918 81.7266C102.811 81.7266 101.915 82.6235 101.915 83.7298C101.915 84.8362 102.811 85.7331 103.918 85.7331Z" fill="#D7D7D7"/>
<path d="M121.313 39.5539C132.196 43.1828 136.037 54.2069 136.074 54.3181C136.356 55.1555 137.136 55.6839 137.974 55.6839C138.183 55.6839 138.396 55.6508 138.608 55.5802C139.656 55.2321 140.224 54.0973 139.873 53.0465C139.697 52.5162 135.403 40.0272 122.581 35.7547C121.521 35.4026 120.398 35.972 120.048 37.0202C119.698 38.071 120.265 39.2053 121.313 39.5539Z" fill="#D7D7D7"/>
<path d="M102.927 106.775C103.202 105.926 104.403 105.926 104.679 106.775L107.318 114.898C107.441 115.278 107.795 115.535 108.194 115.535H116.735C117.628 115.535 117.999 116.677 117.277 117.201L110.367 122.221C110.044 122.456 109.909 122.872 110.032 123.251L112.671 131.375C112.947 132.223 111.976 132.929 111.254 132.404L104.344 127.384C104.021 127.149 103.584 127.149 103.261 127.384L96.351 132.404C95.6292 132.929 94.658 132.223 94.9337 131.375L97.5731 123.251C97.6964 122.872 97.5614 122.456 97.2385 122.221L90.3284 117.201C89.6065 116.677 89.9775 115.535 90.8698 115.535H99.4112C99.8102 115.535 100.164 115.278 100.287 114.898L102.927 106.775Z" fill="#FFC107"/>
<path d="M70.4939 160.153C71.0047 160.153 71.437 159.976 71.7907 159.622C72.164 159.249 72.3605 158.807 72.3802 158.296V141.938C72.3605 141.427 72.164 140.995 71.7907 140.641C71.437 140.287 71.0047 140.111 70.4939 140.111H70.1107V139.816H76.5654V140.111H76.1823C75.6714 140.111 75.2293 140.287 74.856 140.641C74.5023 140.995 74.3156 141.427 74.296 141.938V158.296C74.296 158.807 74.4826 159.249 74.856 159.622C75.2293 159.976 75.6714 160.153 76.1823 160.153H76.5654V160.447H70.1107V160.153H70.4939ZM101.301 140.111C100.81 140.111 100.387 140.287 100.033 140.641C99.6797 140.975 99.4931 141.388 99.4734 141.879V157.087C99.4734 158.227 99.5422 159.308 99.6797 160.329L99.7387 160.86H99.4734L83.4102 143.706V158.384C83.4299 159.072 83.7345 159.583 84.3239 159.917C84.599 160.074 84.8938 160.153 85.2081 160.153H85.7681V160.447H79.6966V160.153H80.2566C80.7478 160.153 81.1702 159.986 81.5239 159.652C81.8776 159.298 82.0545 158.866 82.0545 158.355V143.058C82.0545 141.859 81.9857 140.788 81.8481 139.845L81.7892 139.374H82.0839L98.1471 156.527V141.908C98.1274 141.398 97.9408 140.975 97.5871 140.641C97.2334 140.287 96.811 140.111 96.3197 140.111H95.7597V139.816H101.831V140.111H101.301ZM116.845 140.14V142.616H116.55V142.174C116.55 141.781 116.413 141.447 116.138 141.172C115.863 140.877 115.519 140.729 115.106 140.729H108.887V149.837H113.868C114.261 149.817 114.595 149.67 114.87 149.395C115.146 149.12 115.283 148.786 115.283 148.393V147.951H115.578V152.607H115.283V152.165C115.283 151.772 115.146 151.438 114.87 151.163C114.615 150.888 114.291 150.741 113.898 150.721H108.887V158.296C108.887 158.807 109.074 159.249 109.447 159.622C109.821 159.976 110.263 160.153 110.774 160.153H111.157V160.447H104.702V160.153H105.085C105.596 160.153 106.028 159.976 106.382 159.622C106.755 159.249 106.952 158.807 106.971 158.296V141.791C106.971 141.319 106.775 140.926 106.382 140.612C106.009 140.278 105.576 140.111 105.085 140.111H104.731L104.702 139.816H113.338C113.947 139.816 114.605 139.757 115.313 139.639C116.04 139.521 116.55 139.403 116.845 139.285V140.14ZM123.354 142.38C125.319 140.395 127.873 139.403 131.017 139.403C134.161 139.403 136.715 140.395 138.68 142.38C140.645 144.345 141.627 146.929 141.627 150.132C141.627 153.334 140.645 155.928 138.68 157.913C136.715 159.878 134.161 160.86 131.017 160.86C127.873 160.86 125.319 159.878 123.354 157.913C121.409 155.928 120.436 153.334 120.436 150.132C120.436 146.929 121.409 144.345 123.354 142.38ZM124.975 157.264C126.507 159.072 128.521 159.976 131.017 159.976C133.532 159.976 135.546 159.072 137.059 157.264C138.592 155.457 139.358 153.079 139.358 150.132C139.358 148.186 139.014 146.467 138.326 144.974C137.639 143.48 136.656 142.331 135.379 141.525C134.121 140.7 132.667 140.287 131.017 140.287C128.521 140.287 126.507 141.191 124.975 142.999C123.462 144.807 122.705 147.184 122.705 150.132C122.705 153.079 123.462 155.457 124.975 157.264Z" fill="#FAFAFA"/>
<circle cx="16.5" cy="81.5" r="16.5" fill="#FFC107"/>
<circle cx="186.5" cy="81.5" r="16.5" fill="#03DAC5"/>
</svg>
